<?xml version="1.0" encoding="UTF-8"?>
<svg version="1.1" xmlns="http://www.w3.org/2000/svg" width="769" height="769">
<path d="M0 0 C253.77 0 507.54 0 769 0 C769 253.77 769 507.54 769 769 C515.23 769 261.46 769 0 769 C0 515.23 0 261.46 0 0 Z " fill="#2789E2" transform="translate(0,0)"/>
<path d="M0 0 C26.33413112 20.82657738 38.71572581 55.31103373 52.8203125 84.79296875 C53.32449707 85.84548828 53.82868164 86.89800781 54.34814453 87.98242188 C56.59481786 92.67288598 58.83784686 97.36507225 61.078125 102.05859375 C64.69057535 109.62125461 68.33043977 117.17073278 71.97387695 124.71850586 C74.60704703 130.17738311 77.22681221 135.64160811 79.80859375 141.125 C92.40245577 167.84342219 105.67904934 190.66999848 134.8828125 201.60546875 C145.2556831 205.28940946 155.40127091 206.09168441 166.3347168 206.08349609 C168.29294876 206.09357193 168.29294876 206.09357193 170.29074097 206.10385132 C173.83805346 206.12135822 177.38526923 206.1261998 180.93262076 206.12748289 C183.15409882 206.12891241 185.37555287 206.13319674 187.59702492 206.13847733 C195.36100431 206.15691826 203.12491545 206.16515435 210.88891602 206.16357422 C218.10602383 206.16237048 225.32283375 206.18353329 232.53986615 206.21506155 C238.75843472 206.24125237 244.97690601 206.25194053 251.19552928 206.2506634 C254.90020676 206.25015512 258.60461825 206.25576532 262.30924034 206.2770195 C266.43773078 206.30006595 270.5655546 206.29086398 274.6940918 206.27880859 C275.9103978 206.29004761 277.1267038 206.30128662 278.37986755 206.31286621 C285.79423593 206.2578721 291.66891964 205.66281418 297.33495617 200.3810482 C300.89420399 196.3895092 302.53924405 192.84075317 303.2578125 187.60546875 C302.5039528 181.03611994 299.94067271 175.59753063 294.8828125 171.29296875 C287.97227813 167.90821722 282.25126258 167.50321763 274.66870117 167.52172852 C273.55396423 167.51650177 272.43922729 167.51127502 271.29071045 167.50588989 C268.87302747 167.49566153 266.45532254 167.48987152 264.03761864 167.4880085 C260.19720158 167.48433571 256.35704068 167.46757961 252.51667786 167.44725037 C242.96937337 167.39889787 233.42203636 167.36733342 223.87463379 167.34594727 C215.81793174 167.32786398 207.7614899 167.29823093 199.7048893 167.25190544 C197.17069735 167.24034114 194.6364732 167.23432585 192.10225487 167.23422432 C158.02708535 167.2323655 132.31242623 160.38401167 107.28515625 136.359375 C90.42500377 118.74731177 84.26207152 95.55037499 84.6171875 71.7734375 C85.26852096 51.31681562 93.30234271 34.02072128 106.8203125 18.79296875 C107.41070312 18.12007813 108.00109375 17.4471875 108.609375 16.75390625 C125.78203826 -1.58795961 150.35006686 -11.15325649 175.16816592 -12.31713724 C181.53116751 -12.49367029 187.89475621 -12.45806044 194.25952148 -12.43408203 C196.37993362 -12.43351675 198.50034615 -12.43383676 200.62075806 -12.43496704 C206.33253252 -12.43553699 212.04422167 -12.42384105 217.75597644 -12.40981913 C223.74169648 -12.39725168 229.72741883 -12.39613655 235.71315002 -12.39376831 C247.02807074 -12.38757113 258.34295245 -12.37118431 269.65785605 -12.35106933 C282.54791692 -12.32865529 295.43797973 -12.31770309 308.32805526 -12.30767846 C334.8254959 -12.28681641 361.32290201 -12.25167493 387.8203125 -12.20703125 C386.88804359 -7.28080024 385.1723714 -3.54328887 382.8203125 0.85546875 C382.41949463 1.60699219 382.01867676 2.35851562 381.60571289 3.1328125 C377.92594335 9.87007459 373.70559187 15.85832432 368.8203125 21.79296875 C368.20929687 22.56769531 367.59828125 23.34242188 366.96875 24.140625 C349.81476651 44.8348987 324.13054869 56.26359298 297.8203125 58.79296875 C289.06331346 59.31233072 280.28864004 59.25800517 271.51953125 59.26953125 C269.02430907 59.28388289 266.52909466 59.29964716 264.03388977 59.31674194 C257.51782777 59.3582505 251.00181398 59.38346873 244.48565674 59.40423584 C234.04286065 59.44028803 223.60018392 59.50150312 213.15751076 59.56272507 C209.53841287 59.58160666 205.91934692 59.59348129 202.30021667 59.60415649 C182.66484199 58.22517132 182.66484199 58.22517132 165.0703125 64.04296875 C160.56013753 68.803709 159.28583831 72.94943201 159.4375 79.44921875 C160.31827388 84.84171187 163.56143892 88.65119969 167.5078125 92.23046875 C170.67332093 94.3693258 172.32627256 94.91914755 176.09794617 94.93772888 C176.99616089 94.94462738 177.89437561 94.95152588 178.81980896 94.95863342 C180.30252037 94.96255348 180.30252037 94.96255348 181.81518555 94.96655273 C182.8545224 94.97323975 183.89385925 94.97992676 184.96469116 94.98681641 C187.22966514 95.00089609 189.49465354 95.01278077 191.75964928 95.02276421 C195.35550951 95.03916961 198.95126501 95.06241382 202.54707336 95.08766174 C212.77424885 95.15840491 223.00147006 95.2182174 233.22875977 95.26977539 C239.48164057 95.30177953 245.73440583 95.34312189 251.98719215 95.38997078 C254.3611522 95.40588047 256.7351389 95.41825223 259.10913658 95.42687798 C275.22062888 95.48620151 290.68217132 95.84960788 306.2578125 100.41796875 C307.14178711 100.67449219 308.02576172 100.93101562 308.93652344 101.1953125 C325.50814136 106.23910822 339.26326365 114.96963728 351.8203125 126.79296875 C352.43777344 127.334375 353.05523438 127.87578125 353.69140625 128.43359375 C359.67853021 133.90911589 363.69891699 140.88585298 367.8203125 147.79296875 C368.31789063 148.60507812 368.81546875 149.4171875 369.328125 150.25390625 C379.57857173 168.62734849 380.58648523 191.48514735 375.21484375 211.5 C373.02122569 218.71649557 369.62433923 225.3067112 365.8203125 231.79296875 C365.01980469 233.16001953 365.01980469 233.16001953 364.203125 234.5546875 C349.57342822 257.15429372 324.56734339 270.19797795 298.8203125 275.79296875 C295.85234477 276.28542004 292.88384221 276.62407047 289.88989258 276.9152832 C289.03456594 276.99872891 288.17923929 277.08217463 287.29799366 277.16814899 C275.86828223 278.17555041 264.42114672 278.0610272 252.95703125 278.0234375 C250.50722783 278.02224082 248.05742394 278.02179356 245.60762024 278.02204895 C240.50376458 278.0204965 235.39998029 278.01230533 230.29614258 277.9987793 C223.82180964 277.98181908 217.34755488 277.97796514 210.87320232 277.97872448 C205.82222272 277.97844976 200.7712595 277.97292031 195.72028542 277.96572304 C193.33617081 277.96258712 190.9520544 277.96058116 188.56793785 277.95982933 C176.8069115 277.95205761 165.06364367 277.84562636 153.31176758 277.3527832 C151.94497502 277.29647248 151.94497502 277.29647248 150.55057049 277.23902416 C112.51033764 275.45730562 79.31714751 259.70359002 53.1953125 232.04296875 C19.83220035 194.9146259 0.90822143 146.06731962 -19.02194214 100.92784119 C-23.20883381 91.45177466 -27.44542866 81.99793848 -31.6796875 72.54296875 C-32.43605886 70.85336348 -33.19240718 69.16374789 -33.94873047 67.47412109 C-35.69189996 63.58018726 -37.4356156 59.68649847 -39.1796875 55.79296875 C-41.3523943 60.09967498 -43.50339813 64.40549932 -45.484375 68.8046875 C-45.89526367 69.7114624 -46.30615234 70.6182373 -46.72949219 71.55249023 C-47.16680664 72.51872314 -47.60412109 73.48495605 -48.0546875 74.48046875 C-52.21758217 83.62877693 -56.52797622 92.69488972 -60.9296875 101.73046875 C-65.94587415 112.03498601 -70.77857145 122.40924826 -75.4921875 132.85546875 C-113.11995001 216.13800336 -113.11995001 216.13800336 -133.1796875 239.79296875 C-134.11361328 240.92798828 -134.11361328 240.92798828 -135.06640625 242.0859375 C-152.55631674 262.69777927 -177.66434896 273.85002584 -204.1796875 276.79296875 C-207.32729848 276.89995312 -210.46827022 276.88845499 -213.6171875 276.85546875 C-214.44412109 276.85095703 -215.27105469 276.84644531 -216.12304688 276.84179688 C-218.14195896 276.83012686 -220.16083324 276.81219593 -222.1796875 276.79296875 C-219.87775468 269.19978757 -216.6765821 262.28005476 -213.1796875 255.16796875 C-212.59362531 253.96546782 -212.00818658 252.76266286 -211.42333984 251.55957031 C-210.23828516 249.12241227 -209.05102387 246.68634912 -207.86230469 244.25097656 C-205.48292453 239.36102581 -203.14263114 234.45282664 -200.8046875 229.54296875 C-197.76436469 223.16884051 -194.70469326 216.80453785 -191.6171875 210.453125 C-190.34611629 207.83735509 -189.07525348 205.22148411 -187.8046875 202.60546875 C-187.48651062 201.95043365 -187.16833374 201.29539856 -186.84051514 200.62051392 C-181.70685349 190.04231076 -176.73147901 179.39997345 -171.81298828 168.7199707 C-168.14184474 160.78051545 -164.29562781 152.94914232 -160.33837891 145.14916992 C-156.65941494 137.85558736 -153.21549102 130.46519808 -149.8046875 123.04296875 C-145.03256984 112.66605771 -140.05415982 102.41759077 -134.91015625 92.22045898 C-131.46464025 85.3839118 -128.09380377 78.5185909 -124.8046875 71.60546875 C-124.15306641 70.23878052 -124.15306641 70.23878052 -123.48828125 68.84448242 C-121.4515504 64.57035579 -119.41765013 60.29490177 -117.38867188 56.01708984 C-91.68426436 1.87108171 -91.68426436 1.87108171 -62.1796875 -10.20703125 C-40.83720757 -17.71456243 -18.20426994 -12.63564191 0 0 Z " fill="#FEFEFE" transform="translate(299.1796875,250.20703125)"/>
<path d="M0 0 C253.77 0 507.54 0 769 0 C769 253.77 769 507.54 769 769 C515.23 769 261.46 769 0 769 C0 515.23 0 261.46 0 0 Z M184 10 C182.17636899 10.20706639 180.35229672 10.41039645 178.52734375 10.60546875 C129.88342322 16.51855862 84.05968063 41.39355434 53.4140625 79.8359375 C36.93747092 101.43147015 22.9046408 124.83795255 16.59261739 151.51501912 C16.17942831 153.24761589 15.75249327 154.97696739 15.31506407 156.70360357 C13.14006514 165.57320784 11.84146748 174.43703476 10.84286499 183.49723816 C10.75644298 184.27240995 10.67002097 185.04758174 10.58098011 185.84624358 C8.7005328 203.08277992 8.43492686 220.20810518 8.50641942 237.53030956 C8.5199133 241.91258039 8.50960527 246.29481612 8.50265503 250.67709351 C8.49270983 259.20241473 8.50367366 267.72757749 8.52235563 276.25287894 C8.54339192 286.21980012 8.54297634 296.18668942 8.54201047 306.15362861 C8.5410153 323.95002687 8.55917202 341.74635252 8.58837891 359.54272461 C8.61659683 376.74586304 8.63071754 393.94893772 8.62939453 411.15209961 C8.62931462 412.21391669 8.62923471 413.27573376 8.62915237 414.36972711 C8.62907166 415.42985681 8.62899095 416.48998651 8.6289078 417.58224136 C8.62752343 437.28019779 8.63932758 456.97812759 8.65721423 476.67607534 C8.66320751 483.59819715 8.66536855 490.52031401 8.66627884 497.44243813 C8.66765209 505.88550599 8.67670622 514.32852883 8.69494446 522.77157763 C8.70408733 527.06623283 8.71030641 531.36083104 8.70775604 535.6554966 C8.68426461 586.6891043 15.08797229 634.15847318 45 677 C45.75152344 678.07894531 46.50304688 679.15789063 47.27734375 680.26953125 C52.51983273 687.50283883 58.38362322 694.05299614 64.55517578 700.4921875 C65.87738886 701.87204353 67.18738923 703.26357539 68.49609375 704.65625 C103.05823894 740.52369788 153.31679646 760.33512797 202.66207962 761.41107275 C210.64264475 761.5395129 218.62384414 761.51418036 226.60505271 761.47892153 C231.13801174 761.46343564 235.67094414 761.47161475 240.20391846 761.47660828 C249.04015043 761.48277558 257.87622321 761.46798952 266.71242471 761.44588266 C277.0295439 761.42097781 287.34663559 761.41826925 297.66378038 761.41647889 C316.08041265 761.41261844 334.49697406 761.39026008 352.91357422 761.35668945 C370.73909808 761.32422337 388.56458457 761.30299817 406.39013672 761.29516602 C407.48973955 761.29468052 408.58934238 761.29419503 409.72226651 761.29369483 C414.14375992 761.2917656 418.56525333 761.28985347 422.98674677 761.28797873 C441.07654364 761.27997494 459.16633324 761.26272397 477.25612211 761.24434257 C481.36258529 761.2402089 485.46904853 761.23648527 489.57551241 761.2331202 C500.36063487 761.22417144 511.14573966 761.21229285 521.93084665 761.19155417 C526.38480867 761.18301796 530.83875881 761.17589828 535.29272842 761.17303848 C566.34885224 761.49533671 566.34885224 761.49533671 597.125 757.9375 C598.26678711 757.71980957 599.40857422 757.50211914 600.58496094 757.27783203 C638.14759079 749.71234244 671.46628128 731.33010987 699 705 C700.39025391 703.68902344 700.39025391 703.68902344 701.80859375 702.3515625 C723.12863209 681.72707151 738.94107005 655.22569948 748.27099609 627.16992188 C748.94712658 625.15738076 749.66397466 623.16515414 750.39453125 621.171875 C757.50397144 600.63826528 759.16233918 578.1402439 759.12698364 556.55514526 C759.12813769 555.01096692 759.12972712 553.46678885 759.13171089 551.92261136 C759.13586545 547.70468694 759.13383107 543.48678529 759.13072467 539.26886082 C759.12845484 534.70972099 759.13195813 530.15058498 759.13470459 525.59144592 C759.13914498 516.66838926 759.13819332 507.74534102 759.13529195 498.82228403 C759.13303027 491.56487287 759.13272871 484.30746406 759.13381577 477.05005264 C759.133969 476.01569086 759.13412223 474.98132907 759.13428011 473.91562299 C759.13459985 471.81402229 759.13492406 469.7124216 759.1352527 467.6108209 C759.13810264 447.91409742 759.13482852 428.2173786 759.12945233 408.52065589 C759.12498871 391.64560419 759.12575752 374.77055938 759.13037109 357.89550781 C759.13573229 338.27683369 759.13782382 318.65816366 759.13475883 299.03948891 C759.1344403 296.94393992 759.13412593 294.84839094 759.13381577 292.75284195 C759.13366149 291.72193757 759.13350721 290.69103319 759.13334826 289.62888929 C759.13248745 282.38914657 759.13393668 275.14940646 759.13629532 267.90966415 C759.13911086 259.07350832 759.13831837 250.23736136 759.13301457 241.40120654 C759.13040054 236.89887666 759.12933315 232.39656154 759.13266373 227.8942318 C759.13567468 223.76115967 759.13395521 219.62811577 759.12868617 215.49504615 C759.12758219 214.01123334 759.12810742 212.52741806 759.13056196 211.04360686 C759.151361 197.40883127 759.12396416 183.47487886 756.4375 170.0625 C756.26750488 169.20462891 756.09750977 168.34675781 755.92236328 167.46289062 C748.63193857 132.70174919 733.29960999 101.77308619 710 75 C709.16339844 74.02289063 708.32679688 73.04578125 707.46484375 72.0390625 C702.96898377 66.90314012 698.22831506 62.37342706 693 58 C692.05511719 57.16726562 691.11023438 56.33453125 690.13671875 55.4765625 C650.82095631 21.00098275 602.95522784 8.32238463 551.47895122 8.45119452 C547.66230612 8.45624192 543.84575293 8.43792559 540.02914429 8.42277527 C533.43754641 8.39967234 526.84605784 8.39070574 520.25442123 8.39188385 C510.66256835 8.39357589 501.07085708 8.37297767 491.47904243 8.34752855 C475.82636729 8.30659528 460.17371808 8.28318433 444.52099609 8.27099609 C429.47735009 8.25924499 414.43375465 8.23913854 399.39013672 8.20751953 C398.00640013 8.20461538 398.00640013 8.20461538 396.59470926 8.20165256 C391.95753944 8.19187185 387.32036997 8.18193772 382.6832006 8.17194796 C359.74193054 8.12274566 336.80064943 8.07894247 313.85934448 8.04986572 C313.04784256 8.04883076 312.23634063 8.0477958 311.40024774 8.04672948 C302.71682365 8.03584344 294.0334039 8.02734201 285.34997368 8.0235939 C282.34625114 8.02218142 279.34252864 8.02068754 276.33880615 8.01916504 C275.24339453 8.01866304 275.24339453 8.01866304 274.12585337 8.0181509 C264.87621233 8.01332768 255.62688089 7.98999003 246.37735021 7.94454789 C241.12138242 7.91880041 235.86538772 7.90190396 230.60938478 7.88504553 C228.21113184 7.87530431 225.81288998 7.86199147 223.41468024 7.84461069 C210.10591539 7.7488094 197.19007689 8.19479882 184 10 Z " fill="#FDFEFE" transform="translate(0,0)"/>
<path d="M0 0 C2.89590576 2.49690959 4.15066217 5.14002157 5.6796875 8.6171875 C6.18910889 9.76550049 6.69853027 10.91381348 7.22338867 12.09692383 C7.77396453 13.35626561 8.32450046 14.61562485 8.875 15.875 C9.45669691 17.19132716 10.03914853 18.50732104 10.62231445 19.82299805 C11.82978859 22.54883209 13.03402413 25.27606117 14.23583984 28.00439453 C16.85869187 33.95282363 19.52366382 39.88233837 22.1875 45.8125 C23.26585533 48.21343863 24.34405335 50.61444684 25.421875 53.015625 C25.70148575 53.63837814 25.9810965 54.26113129 26.2691803 54.90275574 C28.25610452 59.3317233 30.23095329 63.76596547 32.20222473 68.20191956 C56.9793753 124.1204884 56.9793753 124.1204884 92 174 C92.83015625 174.97710937 93.6603125 175.95421875 94.515625 176.9609375 C119.62168855 205.83221332 153.08746119 217.38851988 190 222 C188 224 188 224 186.14964294 224.24723816 C185.39957474 224.24581314 184.64950653 224.24438812 183.87670898 224.24291992 C182.59913979 224.24753487 182.59913979 224.24753487 181.29576111 224.25224304 C179.90992577 224.24146477 179.90992577 224.24146477 178.49609375 224.23046875 C177.06741722 224.22978142 177.06741722 224.22978142 175.60987854 224.2290802 C173.58813232 224.22605396 171.56638852 224.21815663 169.54467773 224.20581055 C166.47436086 224.18771722 163.40434866 224.1852998 160.33398438 224.18554688 C158.36718493 224.18062504 156.40038751 224.17479384 154.43359375 224.16796875 C153.52387314 224.16685593 152.61415253 224.1657431 151.67686462 224.16459656 C134.35987753 224.03815731 120.03139706 219.30703828 105 211 C104.01 210.45472656 103.02 209.90945313 102 209.34765625 C60.98238213 184.96363632 42.95573211 130.96206122 23.96191406 89.6550293 C20.92186229 83.06588282 17.81427021 76.51595991 14.63671875 69.9921875 C14.08161118 68.85224335 14.08161118 68.85224335 13.51528931 67.68927002 C11.69274154 63.95094801 9.86368423 60.21594 8.02734375 56.484375 C7.36584092 55.13283428 6.70438041 53.78127284 6.04296875 52.4296875 C5.73429367 51.80714081 5.42561859 51.18459412 5.10758972 50.54318237 C3 46.2260234 3 46.2260234 3 44 C-0.20010868 46.68313518 -1.74287208 50.14107994 -3.51953125 53.828125 C-3.86240677 54.52689758 -4.20528229 55.22567017 -4.55854797 55.94561768 C-5.31045433 57.4791942 -6.0597198 59.01406763 -6.80670166 60.55004883 C-8.03051522 63.06265054 -9.264603 65.56996964 -10.50146484 68.07617188 C-13.24051598 73.62904871 -15.96596357 79.18852094 -18.6875 84.75 C-19.41490891 86.23599701 -19.41490891 86.23599701 -20.15701294 87.75201416 C-26.38341195 100.48141013 -32.50846863 113.24421264 -38.42919922 126.11865234 C-42.16321215 134.22886458 -45.96693378 142.30272001 -49.83816528 150.34820557 C-50.47141392 151.66547856 -51.10292121 152.98359059 -51.73239136 154.30267334 C-64.38362123 180.79319603 -79.49024123 203.98370316 -106 218 C-107.00933594 218.53882813 -108.01867187 219.07765625 -109.05859375 219.6328125 C-122.59369156 225.92402662 -139.25433194 226.16947663 -153.9375 226.25 C-155.51869629 226.26389771 -155.51869629 226.26389771 -157.13183594 226.27807617 C-163.39498723 226.25278153 -168.93972631 225.59248068 -175 224 C-171.89395791 221.92930528 -170.47818871 221.60834635 -166.87109375 221.140625 C-165.84491943 220.99794189 -164.81874512 220.85525879 -163.76147461 220.70825195 C-162.66456299 220.55702881 -161.56765137 220.40580566 -160.4375 220.25 C-139.87120143 217.14629169 -120.43001073 210.97510071 -105.2109375 196.140625 C-103 194 -103 194 -100.0546875 191.6328125 C-96.81595708 188.96165246 -94.30204972 185.94343102 -91.75 182.625 C-91.33621094 182.10550781 -90.92242187 181.58601562 -90.49609375 181.05078125 C-81.42415727 169.40980081 -74.06431603 156.95832758 -67.4375 143.8125 C-66.66244196 142.28983128 -65.88729326 140.7672087 -65.11206055 139.24462891 C-53.61072682 116.55806108 -42.96627365 93.46276499 -32.51983643 70.27563477 C-27.44199708 59.01200232 -22.10563154 47.89018516 -16.66867065 36.79608154 C-10.73891301 24.68444305 -5.20479316 12.44366541 0 0 Z " fill="#2673B6" transform="translate(259,305)"/>
<path d="M0 0 C0.66 0 1.32 0 2 0 C-5.38258586 19.68689563 -19.61267968 36.06744282 -38.57421875 45.24609375 C-46.52153119 48.82185382 -54.44379827 50.60383919 -63 52 C-64.00793106 52.17399826 -65.01586212 52.34799652 -66.05433655 52.52726746 C-70.94866902 53.11366066 -75.74913481 53.14449843 -80.67358398 53.1418457 C-81.72489502 53.14532013 -82.77620605 53.14879456 -83.859375 53.15237427 C-86.1335593 53.15970376 -88.40775063 53.16506403 -90.68194389 53.16866493 C-94.28468944 53.17585831 -97.88730099 53.19154513 -101.49000549 53.21000671 C-111.73037926 53.26235083 -121.97067685 53.31046599 -132.21118164 53.32592773 C-138.48285108 53.33601628 -144.75417867 53.36535762 -151.02571297 53.40724754 C-153.41103593 53.41954356 -155.79640718 53.42468137 -158.18176079 53.42244911 C-161.52055184 53.42009264 -164.85836302 53.4422885 -168.19702148 53.4699707 C-169.17649246 53.46336929 -170.15596344 53.45676788 -171.16511536 53.44996643 C-178.51698636 53.54981193 -184.03026627 55.10841716 -189.375 60.3125 C-191.32525177 63.53791639 -192.1386913 66.33943804 -193 70 C-197.24234863 69.51077907 -198.98261025 68.46375972 -201.6875 65.1875 C-202.26886719 64.50042969 -202.85023438 63.81335938 -203.44921875 63.10546875 C-207.14081092 58.09345822 -207.65271226 54.12051499 -207 48 C-205.12866619 42.15208183 -201.23104306 38.06785855 -196 35 C-184.4973639 32.70465991 -171.66950794 33.83522574 -159.98818398 33.80076981 C-156.28944996 33.78882405 -152.59082472 33.76933434 -148.89213562 33.74765015 C-138.38491507 33.68655212 -127.87770935 33.63211992 -117.37036133 33.59863281 C-110.91555835 33.57752134 -104.46096126 33.5420966 -98.00627708 33.49787521 C-95.56864044 33.48385478 -93.13096747 33.4750249 -90.69329262 33.47182083 C-64.11093215 33.46649092 -64.11093215 33.46649092 -38.6875 26.375 C-37.85976074 26.02727539 -37.03202148 25.67955078 -36.17919922 25.32128906 C-22.52595992 19.38785962 -10.51891448 10.51891448 0 0 Z " fill="#2673B6" transform="translate(665,275)"/>
</svg>
