<?xml version="1.0" encoding="UTF-8"?>
<svg version="1.1" xmlns="http://www.w3.org/2000/svg" width="789" height="789">
<path d="M0 0 C1.49426878 -0.00115484 2.98853728 -0.00274479 4.48280519 -0.00472724 C8.55360048 -0.00887107 12.62437209 -0.00685239 16.69516742 -0.00374103 C21.09959052 -0.00146671 25.5040097 -0.00497671 29.90843201 -0.00772095 C38.5247437 -0.01215672 47.14104665 -0.01121171 55.75735868 -0.00830831 C62.76727058 -0.00604463 69.77718005 -0.00574593 76.78709221 -0.00683212 C77.78701251 -0.00698536 78.78693281 -0.00713859 79.81715373 -0.00729647 C81.84893017 -0.00761621 83.8807066 -0.00794043 85.91248303 -0.00826906 C104.94642504 -0.0111177 123.98036222 -0.00784702 143.01430344 -0.00246869 C159.31133146 0.00199398 175.60835236 0.00122665 191.90538025 -0.00338745 C210.86304528 -0.00875239 229.82070607 -0.01083802 248.77837175 -0.00777519 C250.80457365 -0.00745667 252.83077556 -0.0071423 254.85697746 -0.00683212 C255.85370041 -0.00667785 256.85042335 -0.00652357 257.87735002 -0.00636462 C264.86724015 -0.00550486 271.85712758 -0.00695076 278.84701729 -0.00931168 C287.38257101 -0.01213144 295.91811556 -0.01132604 304.45366824 -0.00603093 C308.80043838 -0.00342236 313.14719326 -0.00233992 317.49396324 -0.00568008 C361.98690149 -0.03700933 361.98690149 -0.03700933 378.85289001 2.37698364 C379.75861755 2.50484253 380.66434509 2.63270142 381.59751892 2.76443481 C432.83891455 10.47612627 478.05233037 40.63540073 508.72398376 81.71682739 C530.44769615 111.86913951 543.63219479 147.08286309 545.91192627 184.20213318 C545.9534202 184.8620115 545.99491414 185.52188981 546.03766546 186.20176444 C547.02290557 202.16573359 547.07109404 218.11769241 547.0371803 234.10642636 C547.03045618 238.35102347 547.03558276 242.59561119 547.0390625 246.84020996 C547.04404423 255.10514655 547.038541 263.37004239 547.0292122 271.63497391 C547.01871229 281.29211566 547.01890138 290.94924913 547.01938478 300.60639552 C547.01988277 317.84772309 547.01079311 335.08903196 546.99620056 352.33035278 C546.9820943 369.0061375 546.97503106 385.68190577 546.97569275 402.35769653 C546.97573271 403.38667949 546.97577266 404.41566245 546.97581383 405.4758267 C546.97585418 406.50315373 546.97589454 407.53048075 546.97593611 408.58893889 C546.97662796 427.6674349 546.97072766 446.74592403 546.9617829 465.8244178 C546.95878346 472.53499099 546.95770539 479.24556291 546.9572506 485.9561367 C546.95656462 494.1399173 546.9520464 502.32368626 546.94291779 510.50746193 C546.93833991 514.67208209 546.93523929 518.83668751 546.93651199 523.00131035 C546.94687187 567.05919221 546.94687187 567.05919221 544.10289001 585.50198364 C543.92918884 586.63700317 543.75548767 587.77202271 543.57652283 588.94143677 C535.38138207 639.70301921 506.82285654 686.48165646 465.17710876 716.77542114 C419.81911762 749.13569296 369.97386884 755.47599503 315.54007041 755.38843298 C311.2952113 755.38383502 307.05036738 755.39092802 302.80551147 755.39639282 C294.52503968 755.40521221 286.24460446 755.40339825 277.96413132 755.39756754 C271.22297492 755.39302045 264.48182866 755.3924512 257.74067116 755.39461517 C256.29248766 755.39507487 256.29248766 755.39507487 254.81504792 755.39554386 C252.85270275 755.39618342 250.89035758 755.39683185 248.92801241 755.39748904 C230.59432487 755.40317074 212.26065744 755.39666902 193.9269732 755.38588831 C178.25798163 755.37695906 162.58901972 755.3785039 146.92002869 755.38772583 C128.64925074 755.39847426 110.37849037 755.40261715 92.10770971 755.3965013 C90.1523252 755.39586432 88.19694068 755.39523558 86.24155617 755.39461517 C85.27990399 755.39430662 84.3182518 755.39399807 83.32745865 755.39368017 C76.61018971 755.39196657 69.89293208 755.39483931 63.1756649 755.39957428 C54.96670651 755.40523445 46.75778627 755.40356059 38.54883214 755.39301279 C34.37514414 755.38782349 30.2015193 755.38558108 26.02783203 755.3923111 C-6.74674354 755.44057344 -39.98049071 755.22412351 -71.20960999 744.12698364 C-72.43937561 743.72092896 -73.66914124 743.31487427 -74.93617249 742.89651489 C-91.60116964 737.21968631 -108.08568367 728.63922023 -122.20960999 718.12698364 C-122.73748108 717.73752563 -123.26535217 717.34806763 -123.80921936 716.94680786 C-167.80379507 684.25463609 -195.5399466 636.99362971 -203.82269639 582.86100608 C-205.19431932 573.16879599 -205.3547045 563.54289579 -205.34332275 553.76719666 C-205.34519412 552.23213177 -205.34749612 550.69706736 -205.35018808 549.1620037 C-205.35627276 544.96899718 -205.35617642 540.7760107 -205.3549937 536.58300078 C-205.35478883 532.05031063 -205.36031681 527.51762676 -205.36505127 522.98493958 C-205.37334137 514.11167309 -205.37610542 505.23841325 -205.37666365 496.36514322 C-205.37713983 489.14402384 -205.37919968 481.92290664 -205.38236427 474.70178795 C-205.39116835 454.19211676 -205.39578433 433.68245079 -205.3950338 413.17277769 C-205.39499384 412.06816614 -205.39495389 410.9635546 -205.39491272 409.82546997 C-205.39487184 408.71949601 -205.39483096 407.61352206 -205.39478884 406.47403374 C-205.39438301 388.57865928 -205.40393735 370.68330592 -205.41805109 352.78793756 C-205.43245555 334.3773099 -205.43931896 315.9666925 -205.43845731 297.55605906 C-205.43812662 287.23455107 -205.44081693 276.91306516 -205.45163536 266.59156227 C-205.46079434 257.7973216 -205.46287191 249.00311302 -205.45612594 240.20886961 C-205.45288701 235.73198338 -205.4527073 231.25515853 -205.46147919 226.77827835 C-205.5774708 163.47167518 -194.6494655 107.1758992 -149.20960999 60.12698364 C-148.29000805 59.14422044 -147.37074062 58.16114414 -146.45179749 57.17776489 C-108.61125069 17.34217893 -53.83305956 -0.091725 0 0 Z " fill="#268AE4" transform="translate(224.20960998535156,17.873016357421875)"/>
<path d="M0 0 C24.17799935 18.26405789 35.44109961 47.68118376 48.3125 74.0625 C48.77731781 75.01486542 49.24213562 75.96723083 49.72103882 76.94845581 C57.8908672 93.69097791 66.01096448 110.45241278 73.89453125 127.33203125 C85.61019783 154.58948347 85.61019783 154.58948347 102 179 C102.61359375 179.75539063 103.2271875 180.51078125 103.859375 181.2890625 C110.55161767 189.29298474 118.47458639 194.38308562 127.625 199.1875 C128.21474609 199.50855713 128.80449219 199.82961426 129.41210938 200.16040039 C145.71807568 208.37064955 163.30336382 207.58680247 181.05606771 207.50437045 C184.83103619 207.49035383 188.60598095 207.49699769 192.38096619 207.50050354 C198.70579804 207.50318973 205.03043835 207.48985808 211.35522461 207.46655273 C218.65252063 207.43984903 225.94949891 207.43823461 233.24682719 207.4499411 C240.30123945 207.46073408 247.35553752 207.45452658 254.40994072 207.44038582 C257.39901895 207.43464959 260.38801297 207.4346897 263.37709236 207.43945122 C267.54592215 207.44512773 271.71428011 207.42586748 275.88305664 207.40405273 C277.11380417 207.40855438 278.3445517 207.41305603 279.6125946 207.41769409 C286.51303498 207.35770114 292.20709287 207.17666822 297.70703125 202.5703125 C303.02453849 195.61809455 303.91242687 189.60956637 303 181 C300.60370019 175.50847961 296.32928432 172.49096902 291 170 C287.60307772 169.18892508 284.45139927 168.87381449 280.96418762 168.86869812 C279.97362869 168.86468994 278.98306976 168.86068176 277.9624939 168.85655212 C276.88666046 168.85708084 275.81082703 168.85760956 274.70239258 168.8581543 C272.98902458 168.85294266 272.98902458 168.85294266 271.24104309 168.84762573 C268.76003823 168.84027619 266.27902683 168.83492654 263.79801369 168.83133507 C259.85663717 168.82414967 255.91538372 168.80846388 251.9740448 168.78999329 C250.61975199 168.78365585 249.26545911 168.77733022 247.91116619 168.77101612 C247.23286829 168.76785031 246.5545704 168.7646845 245.85571802 168.76142275 C236.68808932 168.7195345 227.52050111 168.68645088 218.3527832 168.67407227 C212.15981088 168.66562467 205.96705823 168.64288459 199.77419585 168.6047166 C196.50729719 168.58516652 193.24079144 168.57472937 189.97382545 168.57755089 C157.87443118 168.59843677 133.38152765 162.04940368 110 139 C109.2575 138.27039063 108.515 137.54078125 107.75 136.7890625 C101.8607887 130.60078969 98.00047893 123.47410907 94 116 C93.5875 115.30261719 93.175 114.60523438 92.75 113.88671875 C83.49645707 97.58457866 83.25295244 74.19185418 87.39013672 56.38818359 C93.82233498 33.17768114 109.81631136 13.8885223 130.54296875 1.93359375 C151.03118856 -9.57500902 171.8586881 -11.4716254 194.98510742 -11.34057617 C197.11596159 -11.33972758 199.24681663 -11.34020956 201.37767029 -11.34190369 C207.09958224 -11.342756 212.82130123 -11.32525558 218.54316878 -11.30418181 C224.54620974 -11.28528602 230.54925628 -11.28365449 236.55232239 -11.28010559 C247.89192451 -11.27082273 259.23143871 -11.24626038 270.5710023 -11.21605712 C283.49258732 -11.18239537 296.41417678 -11.16599763 309.33579481 -11.15097082 C335.8905784 -11.11970706 362.44528425 -11.06702052 389 -11 C388.342425 -6.44166456 387.22049017 -3.05480813 385 1 C384.34 1 383.68 1 383 1 C382.74089844 1.87527344 382.48179687 2.75054687 382.21484375 3.65234375 C374.6602908 24.4698739 353.54709875 41.36464706 334.484375 50.7265625 C313.98257282 59.89366788 293.45503885 60.30383997 271.390625 60.37890625 C268.81141549 60.39510979 266.23221196 60.4122927 263.65301514 60.43040466 C257.58449267 60.47122764 251.51597955 60.50431829 245.44738841 60.53287882 C233.93449459 60.5871551 222.42170157 60.65541752 210.90892792 60.73081779 C207.14341516 60.75351274 203.37791341 60.76986915 199.61236572 60.78553772 C197.29268269 60.79895249 194.9730008 60.81256799 192.65332031 60.82641602 C191.09918678 60.83033607 191.09918678 60.83033607 189.51365662 60.83433533 C176.38019572 60.34750339 176.38019572 60.34750339 165.40625 66.33203125 C161.92884246 70.45662298 160.35459982 74.31326856 160.5859375 79.78125 C161.70136389 85.75825176 164.42740324 90.68415373 169.0625 94.5625 C173.03790731 96.50791209 176.21935903 97.1239791 180.62530518 97.13803101 C181.55006653 97.14348434 182.47482788 97.14893768 183.4276123 97.15455627 C184.4353772 97.1555986 185.44314209 97.15664093 186.48144531 97.15771484 C188.0823703 97.16533592 188.0823703 97.16533592 189.71563721 97.17311096 C192.03568958 97.18381458 194.35575228 97.19243479 196.6758194 97.19923019 C200.3603295 97.21104073 204.04472352 97.23050366 207.72918701 97.25234985 C218.20646228 97.31386235 228.68372779 97.36781693 239.16113281 97.40136719 C245.57197585 97.42244669 251.98261042 97.45786403 258.39333344 97.50212479 C260.82507605 97.51618991 263.25685559 97.52498552 265.68863678 97.52817917 C298.19178219 97.57534737 327.7525813 104.07453526 352 127 C352.74378906 127.65355469 353.48757813 128.30710937 354.25390625 128.98046875 C366.3228011 140.05739964 377.24656989 159.7221593 378.18530273 176.265625 C378.2691017 180.11681139 378.27266987 183.9605105 378.25 187.8125 C378.25773438 189.11509766 378.26546875 190.41769531 378.2734375 191.75976562 C378.22545372 215.61970019 368.914628 233.49650844 352.5078125 250.59765625 C342.27547898 260.42008916 330.24840144 267.10464288 317 272 C316.1646875 272.35707031 315.329375 272.71414063 314.46875 273.08203125 C295.03642044 280.7120783 271.94954856 279.44395152 251.4609375 279.36328125 C248.79407162 279.36276046 246.12722151 279.36323554 243.46035767 279.36479187 C237.91557652 279.36566502 232.37091991 279.35480152 226.82617188 279.33618164 C220.48619323 279.31500833 214.14639609 279.31151472 207.80638921 279.3177436 C201.61326945 279.32350826 195.42021125 279.31771066 189.22710037 279.30657005 C186.63365554 279.30277283 184.04020539 279.30154653 181.44675827 279.3031559 C132.31536643 279.30825749 92.41407978 271.35782712 56.6796875 235.68359375 C48.958173 227.49195014 42.4833487 218.17755694 36 209 C35.51241211 208.3105127 35.02482422 207.62102539 34.52246094 206.91064453 C15.28399655 179.33824692 2.03908758 147.15431807 -11.45263672 116.50195312 C-14.109195 110.48969815 -16.80613004 104.49560603 -19.5 98.5 C-25.70254106 84.68252299 -31.85882903 70.84484877 -38 57 C-39.80981709 59.71472564 -41.11845253 62.26675496 -42.4765625 65.22265625 C-42.97414063 66.30095703 -43.47171875 67.37925781 -43.984375 68.49023438 C-44.52578125 69.66908203 -45.0671875 70.84792969 -45.625 72.0625 C-46.80305555 74.61664049 -47.98338116 77.16972866 -49.1640625 79.72265625 C-49.47345764 80.39205231 -49.78285278 81.06144836 -50.10162354 81.75112915 C-53.36261531 88.79873927 -56.67164027 95.82352237 -59.98443604 102.84689331 C-68.42331968 120.7382497 -76.79316078 138.66082007 -85.05078125 156.63671875 C-116.40307385 224.87227382 -116.40307385 224.87227382 -138 247 C-138.66386719 247.72574219 -139.32773438 248.45148438 -140.01171875 249.19921875 C-157.24148067 267.58485568 -182.68070073 276.90843984 -207.45605469 278.12011719 C-211.97623464 278.2332608 -216.48101553 278.17040863 -221 278 C-218.84054634 270.80947876 -215.85715401 264.25656421 -212.53518677 257.53106689 C-210.94974784 254.31978891 -209.38362234 251.09910685 -207.81640625 247.87890625 C-207.49512253 247.21961121 -207.17383881 246.56031616 -206.84281921 245.88104248 C-203.66131255 239.33625745 -200.60490196 232.73546441 -197.5625 226.125 C-191.42018317 212.80722036 -185.04168004 199.61118842 -178.62994385 186.42172241 C-175.87491705 180.75097589 -173.1513237 175.06555222 -170.4375 169.375 C-166.31664992 160.73786473 -162.16447108 152.11615673 -158 143.5 C-152.87709628 132.90001821 -147.78101087 122.28756222 -142.70703125 111.6640625 C-139.32853727 104.59130439 -135.9367933 97.52491397 -132.54150391 90.46020508 C-130.06507806 85.30674462 -127.59375896 80.15101583 -125.13671875 74.98828125 C-122.11548999 68.64698703 -119.06618811 62.31967133 -116 56 C-115.68701965 55.35387756 -115.37403931 54.70775513 -115.05157471 54.04205322 C-112.99737489 49.8044213 -110.92908551 45.57403995 -108.8458252 41.35061646 C-108.17042233 39.97760981 -107.49847681 38.60289559 -106.83044434 37.22628784 C-96.71223154 16.40112298 -83.89092616 -0.70716874 -61.57421875 -9.24609375 C-40.44065541 -15.43543779 -18.26059597 -12.50109147 0 0 Z " fill="#FCFDFD" transform="translate(309,262)"/>
<path d="M0 0 C2.89590576 2.49690959 4.15066217 5.14002157 5.6796875 8.6171875 C6.18951172 9.76638672 6.69933594 10.91558594 7.22460938 12.09960938 C7.77479468 13.35804883 8.3249233 14.61651307 8.875 15.875 C9.4530412 17.18326763 10.03182993 18.49120521 10.61132812 19.79882812 C11.81507938 22.51663206 13.01559555 25.23583061 14.21386719 27.95605469 C16.94586451 34.15082443 19.72492344 40.3244299 22.5 46.5 C25.75242505 53.74379325 28.99853746 60.99008578 32.21484375 68.25 C39.80169791 85.34256697 47.70694803 102.23973684 56 119 C56.4547168 119.92554688 56.90943359 120.85109375 57.37792969 121.8046875 C63.55417572 134.29959876 70.87373805 145.68592689 79 157 C79.67168213 157.93851807 79.67168213 157.93851807 80.35693359 158.89599609 C82.54674566 161.94905828 84.75763097 164.98533469 87 168 C78.29637913 172.97349764 66.30114261 173.30541506 56.47729492 174.29858398 C52.33280732 174.72114702 48.28127141 175.26940468 44.1875 176.0625 C9.90228902 181.94658351 -31.42355216 179.78639034 -65.3425293 173.32128906 C-75.40718699 171.25685467 -75.40718699 171.25685467 -85 174 C-84.56502197 173.33210449 -84.13004395 172.66420898 -83.68188477 171.97607422 C-79.49980652 165.48974732 -75.59969672 158.91733406 -71.9375 152.125 C-71.10677979 150.58477173 -71.10677979 150.58477173 -70.25927734 149.01342773 C-60.32121084 130.39384791 -51.49504071 111.23515723 -42.82131958 92.00338745 C-37.69912319 80.64693996 -32.42046256 69.37199629 -27.0625 58.125 C-20.22195789 43.76534902 -13.52939511 29.34467379 -6.94946289 14.86376953 C-6.47012047 13.80920563 -6.47012047 13.80920563 -5.98109436 12.7333374 C-5.38869207 11.42908997 -4.79710807 10.12447041 -4.20652771 8.81939697 C-2.85935803 5.84984688 -1.4852442 2.9032219 0 0 Z " fill="#46A8F4" transform="translate(270,318)"/>
<path d="M0 0 C1.12312088 -0.00014603 2.24624176 -0.00029205 3.40339661 -0.0004425 C7.08259066 0.00024918 10.76173286 0.00800647 14.44091797 0.01586914 C17.00495374 0.01773597 19.56898987 0.01915862 22.13302612 0.02015686 C28.17112576 0.02357322 34.20920344 0.03143917 40.24729431 0.04150635 C47.12768294 0.05272619 54.0080725 0.05819266 60.88846803 0.06320179 C75.02835729 0.07362357 89.16823037 0.09118623 103.30810547 0.11352539 C102.69112724 1.38247003 102.07003805 2.64941631 101.44726562 3.91552734 C101.10184723 4.62127396 100.75642883 5.32702057 100.40054321 6.05415344 C98.80404271 9.06374219 96.79892768 11.63729483 94.68310547 14.30102539 C93.80674975 15.41686869 92.93044942 16.53275548 92.05419922 17.64868164 C91.60544434 18.21474121 91.15668945 18.78080078 90.69433594 19.36401367 C88.36093471 22.30891561 86.05062536 25.27138958 83.74560547 28.23852539 C83.31618652 28.78275146 82.88676758 29.32697754 82.44433594 29.88769531 C80.56387303 32.30526973 79.28613367 34.17944078 78.30810547 37.11352539 C81.27810547 37.11352539 84.24810547 37.11352539 87.30810547 37.11352539 C87.30810547 37.44352539 87.30810547 37.77352539 87.30810547 38.11352539 C73.88638865 38.1830993 60.46471488 38.23637436 47.04285431 38.26896191 C40.81024293 38.28460391 34.57775512 38.30581575 28.34521484 38.33984375 C22.32814828 38.37248897 16.31120043 38.39038943 10.29405212 38.39815712 C8.00078971 38.40369132 5.70753365 38.41449825 3.4143219 38.43071556 C0.19713402 38.45255803 -3.01956606 38.45548941 -6.23681641 38.45410156 C-7.65238831 38.4702803 -7.65238831 38.4702803 -9.09655762 38.48678589 C-15.57421155 38.45663723 -21.73834761 37.83899919 -26.71533203 33.24633789 C-30.85949086 27.08998634 -34.0774032 21.85523363 -32.69189453 14.11352539 C-30.34306856 8.64973278 -26.74463607 4.25957201 -21.69189453 1.11352539 C-14.61217091 -0.28956172 -7.1853033 -0.02485433 0 0 Z " fill="#47A9F4" transform="translate(501.69189453125,321.886474609375)"/>
</svg>
