<?xml version="1.0" encoding="utf-8" ?><svg xmlns="http://www.w3.org/2000/svg" xmlns:xlink="http://www.w3.org/1999/xlink" width="1024" height="1024" viewBox="0 0 1024 1024"><path fill="#2689E2" d="M346.911 136.216C354.605 135.692 363.603 136.159 371.375 136.264L409.106 136.685L521.582 136.941L631.68 136.858C664.445 136.735 704.011 134.277 735.532 141.534C820.885 161.184 885.373 240.37 886.704 328.113C887.088 353.449 886.996 378.257 886.976 403.377L886.906 538.726L886.974 637.689C887.013 670.655 888.718 705.41 881.206 737.487C873.304 770.106 857.235 800.18 834.511 824.879C803.79 858.33 762.485 880.18 717.546 886.753C704.802 888.636 692.411 888.852 679.555 889.403C661.827 889.783 640.793 888.938 622.649 888.907L483.31 888.893L391.001 888.977C357.512 889.137 320.965 891.04 288.364 883.328C255.164 875.25 224.63 858.691 199.749 835.272C161.331 799.208 138.955 749.261 137.618 696.584C136.771 672.416 137.405 646.075 137.415 621.639L137.457 484.887L137.415 389.043C137.367 355.283 135.962 317.313 143.701 284.572C151.617 252.204 167.798 222.445 190.662 198.206C223.604 163.056 263.018 144.28 310.69 138.427C323.969 136.797 333.762 136.651 346.911 136.216Z"/><path fill="#FEFEFE" d="M204.757 655.378C209.368 642.846 219.474 622.915 225.438 610.596L256.57 545.79L301.347 452.774C309.871 435.196 318.097 417.518 327.469 400.344C340.233 376.957 365.219 363.355 391.745 365.195C437.041 368.339 456.146 413.427 472.597 449.133C480.854 467.054 490 484.911 498.414 502.79C506.449 519.513 516.432 543.714 528.505 557.491C542.635 573.567 562.638 583.283 584.009 584.453C606.514 585.855 636.085 584.652 659.16 584.715L690.949 584.905C704.798 585 729.013 587.768 730.556 566.495C731.291 556.377 723.471 546.991 713.265 545.77C704.108 544.675 694.577 544.972 685.118 544.992L636.283 545.313C597.071 545.667 567.54 546.595 537.458 516.824C520.79 500.546 511.469 478.183 511.643 454.887C511.695 432.093 520.865 410.268 537.107 394.276C549.519 381.972 565.098 373.347 582.114 369.359C600.702 365.003 619.248 365.723 638.14 365.85L677.794 365.958L815.769 366.103C809.408 380.421 803.334 390.563 793.429 402.65C794.136 404.134 794.293 404.519 793.552 406.22C785.886 423.83 771.426 440.195 753.846 448.272C733.04 457.852 709.166 455.106 686.849 455.391C671.961 455.581 657.117 455.531 642.214 455.957C623.752 456.485 605.398 449.919 599.098 473.437C608.584 475.244 623.904 474.498 633.962 474.429L673.807 474.223C687.107 474.108 701.958 473.805 715.189 475.353C744.756 478.813 772.836 493.194 789.823 518.19C802.985 537.249 807.832 560.841 803.249 583.545C798.863 605.795 785.185 624.413 766.471 636.929C754.524 644.868 741.108 650.333 727.015 653.002C708.511 656.492 687.347 655.499 668.558 655.614C651.554 655.718 634.641 655.852 617.634 655.701L590.086 655.378C586.036 655.312 577.864 655.274 574.086 654.729C572.939 656.349 572.22 656.851 570.122 656.988C538.089 659.092 508.319 657.281 481.968 636.819C453.968 615.078 442.501 588.409 428.084 557.433C421.904 544.346 415.189 530.895 408.907 517.651C402.786 504.746 395.833 488.557 389.008 476.231C381.662 487.72 374.367 504.181 368.322 516.839L339.893 576.224C323.362 610.742 306.372 647.478 264.569 656.007C255.219 657.914 218.096 661.232 211.394 655.556L204.757 655.378Z"/><path fill="#2372B6" d="M387.611 432.298C399.842 458.05 411.036 484.857 422.881 510.762C447.099 563.728 474.163 623.638 532.653 645.917C546.565 651.217 559.459 653.399 574.086 654.729C572.939 656.349 572.22 656.851 570.122 656.988C538.089 659.092 508.319 657.281 481.968 636.819C453.968 615.078 442.501 588.409 428.084 557.433C421.904 544.346 415.189 530.895 408.907 517.651C402.786 504.746 395.833 488.557 389.008 476.231C381.662 487.72 374.367 504.181 368.322 516.839L339.893 576.224C323.362 610.742 306.372 647.478 264.569 656.007C255.219 657.914 218.096 661.232 211.394 655.556C228.458 653.738 240.885 653.068 257.111 645.823C295.26 628.791 313.578 591.209 330.686 555.591C340.467 534.95 350.073 514.227 359.504 493.424C368.978 472.866 379.406 453.451 387.611 432.298Z"/><path fill="#2372B6" d="M793.429 402.65C794.136 404.134 794.293 404.519 793.552 406.22C785.886 423.83 771.426 440.195 753.846 448.272C733.04 457.852 709.166 455.106 686.849 455.391C671.961 455.581 657.117 455.531 642.214 455.957C623.752 456.485 605.398 449.919 599.098 473.437C591.742 470.073 586.78 464.848 586.175 456.317C585.659 449.051 592.032 439.024 599.691 438.033C607.549 437.016 616.188 437.138 624.228 437.017C645.767 436.892 667.307 436.923 688.846 437.107C734.679 437.197 758.453 437.489 793.429 402.65Z"/></svg>