<svg role="img" viewBox="0 0 128 128" xmlns="http://www.w3.org/2000/svg" id="Astra--Streamline-Simple-Icons" height="128" width="128">
  <desc>
    Astra Streamline Icon: https://streamlinehq.com
  </desc>
  <title>Astra</title>
  <path d="M64 0A64 64 0 0 0 0 64a64 64 0 0 0 64 64 64 64 0 0 0 64 -64A64 64 0 0 0 64 0m-0.7744 28.3872 7.7424 15.483733333333333c-8.7744 17.703466666666664 -17.5488 35.45813333333333 -26.322666666666667 53.16106666666667H30.709333333333333c10.838933333333333 -22.863999999999997 21.677866666666667 -45.78026666666666 32.51626666666667 -68.64533333333333m14.451733333333333 28.3872c6.554666666666667 13.418666666666667 13.058133333333332 26.838399999999996 19.6128 40.2576h-14.967466666666667c-1.7034666666666667 -3.9738666666666664 -3.458133333333333 -7.896533333333332 -5.1616 -11.870933333333333H64l0.2581333333333333 -0.5157333333333333c4.490666666666666 -9.290666666666667 8.929066666666666 -18.5808 13.419199999999998 -27.87093333333333" fill="#000000" stroke-width="5.3333"></path>
</svg>